<?xml version="1.0" standalone="no"?>
<!DOCTYPE svg PUBLIC "-//W3C//DTD SVG 20010904//EN"
 "http://www.w3.org/TR/2001/REC-SVG-20010904/DTD/svg10.dtd">
<svg version="1.0" xmlns="http://www.w3.org/2000/svg"
 width="512.000000pt" height="512.000000pt" viewBox="0 0 512.000000 512.000000"
 preserveAspectRatio="xMidYMid meet">

<g transform="translate(0.000000,512.000000) scale(0.100000,-0.100000)"
fill="#000000" stroke="none">
<path d="M2300 4900 c-909 -54 -1618 -339 -1815 -730 -58 -115 -55 -33 -55
-1610 0 -1184 3 -1464 14 -1505 53 -201 235 -382 531 -528 616 -306 1625 -399
2475 -227 676 136 1137 420 1226 755 20 74 20 2936 1 3010 -97 358 -612 655
-1353 779 -296 50 -728 74 -1024 56z m750 -234 c415 -53 741 -138 998 -261
207 -99 334 -202 395 -319 27 -52 32 -72 32 -136 0 -65 -4 -84 -33 -142 -145
-295 -796 -539 -1597 -598 -829 -61 -1775 161 -2088 489 -81 84 -112 155 -112
251 0 63 5 84 30 134 98 195 429 378 888 491 164 40 392 78 557 94 63 6 131
13 150 15 88 10 662 -4 780 -18z m-2202 -1297 c287 -175 696 -296 1197 -356
118 -14 227 -18 515 -18 288 0 397 4 515 18 594 71 1064 231 1343 457 l63 51
-3 -253 c-3 -252 -3 -253 -30 -304 -65 -124 -175 -216 -373 -314 -273 -135
-601 -223 -1035 -277 -207 -25 -753 -25 -960 0 -413 52 -751 139 -1008 262
-207 99 -334 202 -395 319 l-32 61 -3 253 -3 253 63 -51 c35 -28 100 -74 146
-101z m-112 -779 c175 -133 457 -255 769 -334 1022 -256 2355 -93 2907 357 32
26 60 47 63 47 4 0 5 -136 3 -302 l-3 -303 -27 -51 c-65 -124 -175 -216 -373
-314 -216 -107 -444 -178 -755 -234 -280 -51 -402 -61 -760 -61 -262 0 -367 4
-480 18 -413 52 -751 139 -1008 262 -207 99 -334 202 -395 319 l-32 61 -3 304
c-3 299 -3 304 16 290 11 -8 46 -34 78 -59z m0 -960 c175 -133 457 -255 769
-334 1022 -256 2355 -93 2907 357 32 26 60 47 63 47 4 0 5 -136 3 -302 l-3
-303 -27 -51 c-65 -124 -175 -216 -373 -314 -273 -135 -601 -223 -1035 -277
-207 -25 -753 -25 -960 0 -413 52 -751 139 -1008 262 -207 99 -334 202 -395
319 l-32 61 -3 304 c-3 299 -3 304 16 290 11 -8 46 -34 78 -59z"/>
</g>
</svg>
