<?xml version="1.0" standalone="no"?>
<!DOCTYPE svg PUBLIC "-//W3C//DTD SVG 20010904//EN"
 "http://www.w3.org/TR/2001/REC-SVG-20010904/DTD/svg10.dtd">
<svg version="1.0" xmlns="http://www.w3.org/2000/svg"
 width="500.000000pt" height="500.000000pt" viewBox="0 0 500.000000 500.000000"
 preserveAspectRatio="xMidYMid meet">

<g transform="translate(0.000000,500.000000) scale(0.100000,-0.100000)"
fill="#000000" stroke="none">
<path d="M535 2623 c-259 -404 -481 -753 -494 -774 l-23 -39 330 0 330 0 69
123 70 122 494 3 494 2 71 -122 70 -123 332 -3 331 -2 -181 282 c-99 156 -322
505 -496 776 l-315 492 -306 -1 -306 0 -470 -736z m917 54 l127 -222 -261 -3
c-144 -1 -263 0 -265 2 -4 4 228 417 250 444 5 7 13 10 16 6 3 -3 63 -105 133
-227z"/>
<path d="M2800 2586 l0 -776 325 0 325 0 0 225 0 225 228 0 c251 0 331 -9 401
-44 84 -44 129 -113 165 -260 9 -38 26 -86 37 -107 l19 -39 309 0 309 0 -19
60 c-10 33 -25 99 -33 148 -28 171 -75 248 -191 308 -30 16 -55 31 -55 34 1 3
23 16 51 29 74 34 163 121 199 194 64 131 64 323 -1 455 -78 159 -238 246
-551 298 -89 15 -199 18 -810 21 l-708 4 0 -775z m1217 384 c156 -18 218 -47
242 -116 12 -35 12 -46 0 -84 -32 -100 -117 -121 -516 -128 l-293 -5 0 172 0
171 243 0 c133 0 279 -4 324 -10z"/>
</g>
</svg>
